PathFileType	4	(X/Y/Z)	C:/Users/opensim2020/Desktop/walking_exp_matlab/subject06_walking13_straight_02.trc																																																																																																																																																				
DataRate	CameraRate	NumFrames	NumMarkers	Units	OrigDataRate	OrigDataStartFrame	OrigNumFrames																																																																																																																																																
100	100	5	50	mm	100	1611	199																																																																																																																																																
Frame#	Time	LFHD			RFHD			LBHD			RBHD			C7			T10			CLAV			STRN			RBAK			LSHO			LUPA			LELB			LFRM			LWRA			LWRB			LFIN			RSHO			RUPA			RELB			RFRM			RWRA			RWRB			RFIN			LASI			RASI			LPSI			RPSI			LTHI			LKNE			LTIB			LANK			LHEE			LTOE			RTHI			RKNE			RTIB			RANK			RHEE			RTOE			*39			*40			*41			*42			*43			*44			*45			*46			*47			*48			*49		
		X1	Y1	Z1	X2	Y2	Z2	X3	Y3	Z3	X4	Y4	Z4	X5	Y5	Z5	X6	Y6	Z6	X7	Y7	Z7	X8	Y8	Z8	X9	Y9	Z9	X10	Y10	Z10	X11	Y11	Z11	X12	Y12	Z12	X13	Y13	Z13	X14	Y14	Z14	X15	Y15	Z15	X16	Y16	Z16	X17	Y17	Z17	X18	Y18	Z18	X19	Y19	Z19	X20	Y20	Z20	X21	Y21	Z21	X22	Y22	Z22	X23	Y23	Z23	X24	Y24	Z24	X25	Y25	Z25	X26	Y26	Z26	X27	Y27	Z27	X28	Y28	Z28	X29	Y29	Z29	X30	Y30	Z30	X31	Y31	Z31	X32	Y32	Z32	X33	Y33	Z33	X34	Y34	Z34	X35	Y35	Z35	X36	Y36	Z36	X37	Y37	Z37	X38	Y38	Z38	X39	Y39	Z39	X40	Y40	Z40	X41	Y41	Z41	X42	Y42	Z42	X43	Y43	Z43	X44	Y44	Z44	X45	Y45	Z45	X46	Y46	Z46	X47	Y47	Z47	X48	Y48	Z48	X49	Y49	Z49	X50	Y50	Z50
																																																																																																																																																							
75	0.74	-244.51195	1645.32983	-1524.15625	-253.70444	1632.13208	-1392.81885	-380.82486	1599.09521	-1533.14417	-388.35037	1591.96521	-1404.37439	-394.38312	1437.46338	-1478.96716	-433.01996	1107.32666	-1470.88367	-286.76175	1357.98987	-1470.05164	-248.90329	1181.89783	-1477.28894	-474.02081	1266.81519	-1410.01807	-330.32834	1392.90356	-1634.66101	-287.12836	1200.31055	-1715.29211	-253.85088	1093.95117	-1735.15039	-141.93939	995.64972	-1754.16895	-21.23638	960.09167	-1707.01196	-58.86437	909.90308	-1740.15198	28.39369	887.02582	-1741.00415	-341.55637	1388.98206	-1311.68079	-424.65723	1200.06104	-1235.87183	-443.86783	1079.02454	-1228.43201	-468.44724	960.8551	-1213.14929	-458.28357	808.01227	-1242.6969	-511.22992	829.25348	-1205.15186	-505.47369	743.91449	-1204.02942	-261.07114	943.75305	-1581.59814	-252.36282	953.12592	-1361.00806	-418.61621	973.7782	-1544.75415	-404.09583	974.27704	-1375.81006	-365.99652	635.26831	-1625.92383	-399.57983	473.4119	-1600.10815	-519.04968	242.13702	-1591.20593	-586.01788	84.0751	-1542.63147	-631.83929	79.88193	-1499.92932	-449.63336	38.57854	-1533.76746	-237.84959	624.38678	-1295.88782	-192.98663	507.69229	-1328.04272	-136.54942	257.16718	-1332.64465	-64.48628	84.37309	-1375.99023	-87.8884	49.8023	-1425.58154	93.05515	97.90848	-1373.69446	-345.78339	1688.95618	-1470.07495	NaN	NaN	NaN	NaN	NaN	NaN	NaN	NaN	NaN	NaN	NaN	NaN	NaN	NaN	NaN	NaN	NaN	NaN	NaN	NaN	NaN	NaN	NaN	NaN	NaN	NaN	NaN	NaN	NaN	NaN
76	0.75	-234.27037	1644.27209	-1523.26746	-243.38457	1630.9436	-1391.96863	-370.50049	1597.82874	-1532.33398	-378.5166	1590.5531	-1403.45129	-383.7359	1436.20435	-1478.34106	-421.90384	1105.96985	-1470.30737	-275.98343	1356.82288	-1469.33972	-237.79388	1180.76038	-1476.75574	-463.26715	1265.36646	-1409.57471	-319.6012	1391.68555	-1634.0415	-276.41711	1199.07446	-1714.57263	-242.79631	1092.84595	-1734.33997	-130.01067	995.64124	-1753.11731	-8.97926	961.91827	-1706.02405	-45.82113	910.95563	-1738.58997	41.5887	889.39618	-1739.67712	-330.94205	1387.56152	-1310.97217	-413.84207	1198.77917	-1235.36401	-433.3374	1077.6676	-1227.6853	-458.08582	959.52942	-1212.23792	-447.80042	806.60699	-1241.66345	-501.02972	828.0498	-1204.0658	-495.51431	742.65747	-1202.74976	-249.97412	942.38232	-1581.20435	-241.07143	951.8501	-1360.38354	-407.54974	972.3479	-1543.82751	-392.95853	973.14789	-1374.92273	-356.45703	634.41364	-1625.56775	-391.13358	472.71957	-1599.79321	-514.6944	243.45311	-1591.5293	-584.57013	86.42771	-1543.29395	-630.62201	83.04183	-1500.91687	-449.04211	38.43189	-1533.67444	-225.37791	623.52917	-1296.23608	-180.14145	507.59241	-1328.46484	-125.33018	256.17328	-1332.74207	-54.26723	82.94662	-1376.29578	-77.85547	48.09099	-1425.61304	103.50102	96.83432	-1374.90002	-335.51056	1687.70496	-1469.16699	NaN	NaN	NaN	NaN	NaN	NaN	NaN	NaN	NaN	NaN	NaN	NaN	NaN	NaN	NaN	NaN	NaN	NaN	NaN	NaN	NaN	NaN	NaN	NaN	NaN	NaN	NaN	NaN	NaN	NaN
77	0.76	-223.95758	1643.31628	-1522.34668	-232.90114	1629.89575	-1391.07153	-360.15204	1596.70105	-1531.36902	-368.07565	1589.27539	-1402.51343	-373.12219	1434.99255	-1477.54272	-410.71954	1104.68884	-1469.70898	-265.13852	1355.82959	-1468.62842	-226.64653	1179.81543	-1476.13123	-452.39587	1263.92798	-1409.09399	-308.87607	1390.71692	-1633.35596	-265.77829	1198.03052	-1713.72351	-231.95874	1091.82971	-1733.41956	-118.85484	995.35059	-1751.57288	2.78671	963.30139	-1704.88647	-33.55053	911.7984	-1737.36951	54.12991	891.19476	-1738.37317	-320.27295	1386.30835	-1310.26758	-403.06104	1197.45081	-1234.68689	-422.43225	1076.3252	-1226.87158	-447.18857	958.22797	-1211.26819	-437.07275	805.17169	-1240.22034	-490.20474	826.80402	-1202.94861	-484.65936	741.43579	-1201.38611	-238.69078	941.18744	-1580.55066	-229.6436	950.75458	-1359.43298	-396.19797	971.01434	-1542.8938	-381.40756	971.93231	-1374.05542	-346.58698	633.55548	-1625.15796	-382.35635	472.05423	-1599.41907	-510.03979	244.90991	-1591.84729	-583.21399	89.19363	-1544.25354	-629.49121	86.73806	-1501.89124	-448.70505	38.38583	-1533.76538	-212.74397	623.21356	-1296.59753	-167.1188	507.81244	-1329.03076	-114.89677	254.94136	-1332.94678	-46.68209	80.57924	-1376.93506	-70.72611	45.8115	-1426.20898	110.65778	93.57298	-1375.48145	-325.23608	1686.58801	-1468.14673	NaN	NaN	NaN	NaN	NaN	NaN	NaN	NaN	NaN	NaN	NaN	NaN	NaN	NaN	NaN	NaN	NaN	NaN	NaN	NaN	NaN	NaN	NaN	NaN	NaN	NaN	NaN	NaN	NaN	NaN
78	0.77	-213.59033	1642.48926	-1521.39063	-222.51712	1628.89209	-1390.03137	-349.73401	1595.71338	-1530.42786	-357.57855	1588.1123	-1401.54272	-362.45728	1433.85889	-1476.73828	-399.35223	1103.49133	-1469.08423	-254.27435	1354.92224	-1467.77112	-215.43735	1178.97327	-1475.323	-441.35226	1262.67554	-1408.54309	-298.02963	1389.8595	-1632.55237	-255.16109	1197.07104	-1712.72327	-221.24174	1090.93188	-1732.32617	-107.62048	995.02808	-1750.5387	14.0727	964.19946	-1703.79688	-21.88838	912.2442	-1735.9751	65.95007	892.3894	-1737.01782	-309.60858	1385.23206	-1309.46228	-392.11182	1196.18555	-1233.8916	-411.20453	1075.10815	-1226.03088	-435.83087	957.00385	-1210.2854	-425.52353	803.96423	-1239.29492	-478.73911	825.59674	-1201.67065	-473.23288	740.23627	-1199.97583	-227.06947	940.12598	-1579.80078	-217.88071	949.95221	-1358.34448	-384.51193	969.79388	-1542.12634	-369.69531	970.83374	-1373.41858	-336.39371	632.61987	-1624.56213	-373.05182	471.29797	-1599.02087	-504.96555	246.45435	-1592.30554	-581.53278	92.15761	-1545.1886	-628.02924	90.67484	-1503.02002	-448.32382	38.32437	-1533.92224	-199.59073	623.24554	-1296.93945	-154.01399	508.13824	-1329.8717	-105.4835	253.36591	-1333.27283	-41.43764	77.49543	-1377.82751	-66.11048	43.0049	-1427.22827	115.75383	88.76014	-1376.31226	-314.90604	1685.56616	-1467.09302	NaN	NaN	NaN	NaN	NaN	NaN	NaN	NaN	NaN	NaN	NaN	NaN	NaN	NaN	NaN	NaN	NaN	NaN	NaN	NaN	NaN	NaN	NaN	NaN	NaN	NaN	NaN	NaN	NaN	NaN
79	0.78	-203.25668	1641.70215	-1520.33447	-212.00267	1628.04211	-1389.05347	-339.33926	1594.83362	-1529.37268	-346.9884	1587.11267	-1400.51526	-351.75626	1432.7688	-1475.76489	-387.72446	1102.40625	-1468.44641	-243.31323	1354.12292	-1466.85608	-204.00764	1178.28137	-1474.46362	-430.28244	1261.54993	-1407.85938	-287.16345	1389.09644	-1631.57092	-244.4585	1196.25598	-1711.60559	-210.83633	1090.1084	-1731.12292	-96.90446	994.61475	-1749.34436	24.91866	964.5788	-1702.65088	-10.7613	912.29114	-1734.51929	77.18165	892.97516	-1735.66125	-298.91919	1384.29553	-1308.57141	-381.19769	1194.90625	-1232.97766	-399.67905	1073.93982	-1225.06067	-424.09561	955.82452	-1209.22656	-413.63248	802.74774	-1237.68457	-466.73697	824.37354	-1200.43762	-460.73932	739.07666	-1198.58191	-215.14792	939.18982	-1579.07104	-205.77744	949.31549	-1357.21753	-372.56244	968.61987	-1541.40918	-357.50491	969.8775	-1372.81067	-325.92596	631.67963	-1623.95728	-363.20975	470.44284	-1598.63806	-499.68503	248.19182	-1592.68103	-579.47137	95.33599	-1546.07922	-626.13965	95.00677	-1504.29871	-447.92487	38.23959	-1534.07104	-186.47011	623.43976	-1297.11841	-140.63063	508.65665	-1330.19983	-96.87522	251.41031	-1333.6969	-38.24173	74.03899	-1378.77185	-63.80392	40.22359	-1428.14783	118.25249	83.01814	-1376.96289	-304.57068	1684.64343	-1465.97437	NaN	NaN	NaN	NaN	NaN	NaN	NaN	NaN	NaN	NaN	NaN	NaN	NaN	NaN	NaN	NaN	NaN	NaN	NaN	NaN	NaN	NaN	NaN	NaN	NaN	NaN	NaN	NaN	NaN	NaN
